<?xml version="1.0" encoding="UTF-8" standalone="no" ?>
<!DOCTYPE svg PUBLIC "-//W3C//DTD SVG 1.1//EN" "http://www.w3.org/Graphics/SVG/1.1/DTD/svg11.dtd">
<svg xmlns="http://www.w3.org/2000/svg" xmlns:xlink="http://www.w3.org/1999/xlink" version="1.1" width="1080" height="600" viewBox="0 0 1080 600" xml:space="preserve">
<desc>Created with Fabric.js 5.2.4</desc>
<defs>
</defs>
<rect x="0" y="0" width="100%" height="100%" fill="transparent"></rect>
<g transform="matrix(0 0 0 0 0 0)" id="4e8c65a5-650c-4b8d-967b-27ab44c0a22d"  >
</g>
<g transform="matrix(1 0 0 1 540 300)" id="0752674a-b145-4ca5-b3d5-6e400346257e"  >
<rect style="stroke: none; stroke-width: 1; stroke-dasharray: none; stroke-linecap: butt; stroke-dashoffset: 0; stroke-linejoin: miter; stroke-miterlimit: 4; fill: rgb(255,255,255); fill-rule: nonzero; opacity: 1; visibility: hidden;" vector-effect="non-scaling-stroke"  x="-540" y="-300" rx="0" ry="0" width="1080" height="600" />
</g>
<g transform="matrix(37.87 0 0 29.71 337.61 279.6)"  >
<g style=""   >
		<g transform="matrix(0.03 0 0 0.03 5.13 -2.96)"  >
<path style="stroke: none; stroke-width: 1; stroke-dasharray: none; stroke-linecap: butt; stroke-dashoffset: 0; stroke-linejoin: miter; stroke-miterlimit: 4; fill: rgb(155,157,161); fill-rule: nonzero; opacity: 1;" vector-effect="non-scaling-stroke"  transform=" translate(-256, -153.6)" d="M 426.66 204.802 C 425.377 204.802 424.07500000000005 204.512 422.85 203.899 L 256 120.474 L 89.15 203.899 C 84.935 206.007 79.808 204.299 77.70100000000001 200.082 C 75.59200000000001 195.867 77.302 190.74099999999999 81.516 188.63299999999998 L 252.183 103.3 C 254.587 102.099 257.412 102.099 259.816 103.3 L 430.48299999999995 188.63299999999998 C 434.69699999999995 190.74099999999999 436.4069999999999 195.86599999999999 434.29799999999994 200.082 C 432.804 203.073 429.791 204.802 426.66 204.802 z" stroke-linecap="round" />
</g>
		<g transform="matrix(0.03 0 0 0.03 5.03 -5.71)"  >
<path style="stroke: none; stroke-width: 1; stroke-dasharray: none; stroke-linecap: butt; stroke-dashoffset: 0; stroke-linejoin: miter; stroke-miterlimit: 4; fill: rgb(76,78,85); fill-rule: nonzero; opacity: 1;" vector-effect="non-scaling-stroke"  transform=" translate(-256, -59.73)" d="M 256 119.467 C 232.474 119.467 213.333 100.327 213.333 76.8 C 213.333 72.087 217.154 68.267 221.86599999999999 68.267 C 226.57899999999998 68.267 230.39899999999997 72.088 230.39899999999997 76.8 C 230.39899999999997 90.916 241.88399999999996 102.4 255.99899999999997 102.4 C 270.114 102.4 281.599 90.91600000000001 281.599 76.80000000000001 C 281.599 62.68400000000001 270.115 51.2 256 51.2 C 251.287 51.2 247.467 47.379000000000005 247.467 42.667 L 247.467 8.533 C 247.467 3.821 251.287 0 256 0 C 260.713 0 264.533 3.821 264.533 8.533 L 264.533 34.991 C 283.98400000000004 38.956 298.666 56.196 298.666 76.8 C 298.667 100.326 279.526 119.467 256 119.467 z" stroke-linecap="round" />
</g>
		<g transform="matrix(0.03 0 0 0.03 5.17 2.86)"  >
<path style="stroke: none; stroke-width: 1; stroke-dasharray: none; stroke-linecap: butt; stroke-dashoffset: 0; stroke-linejoin: miter; stroke-miterlimit: 4; fill: rgb(37,112,193); fill-rule: nonzero; opacity: 1;" vector-effect="non-scaling-stroke"  transform=" translate(-256, -349.87)" d="M 477.867 187.733 L 34.133 187.733 C 20.018 187.733 8.533000000000001 199.21800000000002 8.533000000000001 213.333 L 8.533000000000001 486.4 C 8.533000000000001 500.515 20.018 512 34.133 512 L 477.866 512 C 491.981 512 503.466 500.515 503.466 486.4 L 503.466 213.333 C 503.467 199.218 491.982 187.733 477.867 187.733 z" stroke-linecap="round" />
</g>
		<g transform="matrix(0.03 0 0 0.03 5.16 2.88)"  >
<path style="stroke: none; stroke-width: 1; stroke-dasharray: none; stroke-linecap: butt; stroke-dashoffset: 0; stroke-linejoin: miter; stroke-miterlimit: 4; fill: rgb(37,112,193); fill-rule: nonzero; opacity: 1;" vector-effect="non-scaling-stroke"  transform=" translate(-255.45, -350.42)" d="M 494.933 494.933 L 34.13299999999998 494.933 C 29.41999999999998 494.933 25.59999999999998 491.11199999999997 25.59999999999998 486.4 L 25.59999999999998 196.267 C 25.59999999999998 193.682 25.98599999999998 191.19 26.69899999999998 188.839 C 16.19899999999998 192.033 8.533999999999981 201.803 8.533999999999981 213.334 L 8.533999999999981 486.4 C 8.533999999999981 500.515 20.01899999999998 512 34.133999999999986 512 L 477.86699999999996 512 C 489.39799999999997 512 499.16799999999995 504.335 502.36199999999997 493.835 C 500.011 494.547 497.518 494.933 494.933 494.933 z" stroke-linecap="round" />
</g>
		<g transform="matrix(0.03 0 0 0.03 5.02 2.83)"  >
<path style="stroke: none; stroke-width: 1; stroke-dasharray: none; stroke-linecap: butt; stroke-dashoffset: 0; stroke-linejoin: miter; stroke-miterlimit: 4; fill: rgb(37,112,193); fill-rule: nonzero; opacity: 1;" vector-effect="non-scaling-stroke"  transform=" translate(-256, -349.87)" d="M 256 238.933 C 241.885 238.933 230.4 250.418 230.4 264.533 L 230.4 435.2 C 230.4 449.315 241.885 460.8 256 460.8 C 270.115 460.8 281.6 449.315 281.6 435.2 L 281.6 264.533 C 281.6 250.418 270.115 238.933 256 238.933 z" stroke-linecap="round" />
</g>
		<g transform="matrix(0.03 0 0 0.03 7.27 2.83)"  >
<path style="stroke: none; stroke-width: 1; stroke-dasharray: none; stroke-linecap: butt; stroke-dashoffset: 0; stroke-linejoin: miter; stroke-miterlimit: 4; fill: rgb(37,112,193); fill-rule: nonzero; opacity: 1;" vector-effect="non-scaling-stroke"  transform=" translate(-332.8, -349.87)" d="M 332.8 238.933 C 318.685 238.933 307.2 250.418 307.2 264.533 L 307.2 435.2 C 307.2 449.315 318.685 460.8 332.8 460.8 C 346.915 460.8 358.40000000000003 449.315 358.40000000000003 435.2 L 358.40000000000003 264.533 C 358.4 250.418 346.915 238.933 332.8 238.933 z" stroke-linecap="round" />
</g>
		<g transform="matrix(0.03 0 0 0.03 9.52 2.83)"  >
<path style="stroke: none; stroke-width: 1; stroke-dasharray: none; stroke-linecap: butt; stroke-dashoffset: 0; stroke-linejoin: miter; stroke-miterlimit: 4; fill: rgb(37,112,193); fill-rule: nonzero; opacity: 1;" vector-effect="non-scaling-stroke"  transform=" translate(-409.6, -349.87)" d="M 409.6 238.933 C 395.485 238.933 384 250.418 384 264.533 L 384 435.2 C 384 449.315 395.485 460.8 409.6 460.8 C 423.71500000000003 460.8 435.20000000000005 449.315 435.20000000000005 435.2 L 435.20000000000005 264.533 C 435.2 250.418 423.715 238.933 409.6 238.933 z" stroke-linecap="round" />
</g>
		<g transform="matrix(0.03 0 0 0.03 2.77 2.83)"  >
<path style="stroke: none; stroke-width: 1; stroke-dasharray: none; stroke-linecap: butt; stroke-dashoffset: 0; stroke-linejoin: miter; stroke-miterlimit: 4; fill: rgb(37,112,193); fill-rule: nonzero; opacity: 1;" vector-effect="non-scaling-stroke"  transform=" translate(-179.2, -349.87)" d="M 179.2 238.933 C 165.08499999999998 238.933 153.6 250.418 153.6 264.533 L 153.6 435.2 C 153.6 449.315 165.08499999999998 460.8 179.2 460.8 C 193.315 460.8 204.79999999999998 449.315 204.79999999999998 435.2 L 204.79999999999998 264.533 C 204.8 250.418 193.315 238.933 179.2 238.933 z" stroke-linecap="round" />
</g>
		<g transform="matrix(0.03 0 0 0.03 0.52 2.83)"  >
<path style="stroke: none; stroke-width: 1; stroke-dasharray: none; stroke-linecap: butt; stroke-dashoffset: 0; stroke-linejoin: miter; stroke-miterlimit: 4; fill: rgb(37,112,193); fill-rule: nonzero; opacity: 1;" vector-effect="non-scaling-stroke"  transform=" translate(-102.4, -349.87)" d="M 102.4 238.933 C 88.28500000000001 238.933 76.80000000000001 250.418 76.80000000000001 264.533 L 76.80000000000001 435.2 C 76.80000000000001 449.315 88.28500000000001 460.8 102.4 460.8 C 116.515 460.8 128 449.315 128 435.2 L 128 264.533 C 128 250.418 116.515 238.933 102.4 238.933 z" stroke-linecap="round" />
</g>
		<g transform="matrix(0.03 0 0 0.03 0.26 2.83)"  >
<path style="stroke: none; stroke-width: 1; stroke-dasharray: none; stroke-linecap: butt; stroke-dashoffset: 0; stroke-linejoin: miter; stroke-miterlimit: 4; fill: rgb(21,82,147); fill-rule: nonzero; opacity: 1;" vector-effect="non-scaling-stroke"  transform=" translate(-93.87, -349.87)" d="M 93.867 435.2 L 93.867 264.533 C 93.867 253.40900000000002 101.00200000000001 243.924 110.934 240.401 C 108.26299999999999 239.454 105.392 238.93300000000002 102.401 238.93300000000002 C 88.286 238.93300000000002 76.80099999999999 250.418 76.80099999999999 264.533 L 76.80099999999999 435.2 C 76.80099999999999 449.315 88.28599999999999 460.8 102.40099999999998 460.8 C 105.39199999999998 460.8 108.26299999999998 460.279 110.93399999999998 459.332 C 101.002 455.809 93.867 446.324 93.867 435.2 z" stroke-linecap="round" />
</g>
		<g transform="matrix(0.03 0 0 0.03 2.51 2.83)"  >
<path style="stroke: none; stroke-width: 1; stroke-dasharray: none; stroke-linecap: butt; stroke-dashoffset: 0; stroke-linejoin: miter; stroke-miterlimit: 4; fill: rgb(21,82,147); fill-rule: nonzero; opacity: 1;" vector-effect="non-scaling-stroke"  transform=" translate(-170.67, -349.87)" d="M 170.667 435.2 L 170.667 264.533 C 170.667 253.40900000000002 177.802 243.924 187.734 240.401 C 185.06300000000002 239.454 182.192 238.93300000000002 179.20100000000002 238.93300000000002 C 165.086 238.93300000000002 153.60100000000003 250.418 153.60100000000003 264.533 L 153.60100000000003 435.2 C 153.60100000000003 449.315 165.086 460.8 179.20100000000002 460.8 C 182.19200000000004 460.8 185.06300000000002 460.279 187.734 459.332 C 177.802 455.809 170.667 446.324 170.667 435.2 z" stroke-linecap="round" />
</g>
		<g transform="matrix(0.03 0 0 0.03 4.76 2.83)"  >
<path style="stroke: none; stroke-width: 1; stroke-dasharray: none; stroke-linecap: butt; stroke-dashoffset: 0; stroke-linejoin: miter; stroke-miterlimit: 4; fill: rgb(21,82,147); fill-rule: nonzero; opacity: 1;" vector-effect="non-scaling-stroke"  transform=" translate(-247.47, -349.87)" d="M 247.467 435.2 L 247.467 264.533 C 247.467 253.40900000000002 254.602 243.924 264.534 240.401 C 261.863 239.454 258.992 238.93300000000002 256.001 238.93300000000002 C 241.88599999999997 238.93300000000002 230.40099999999998 250.418 230.40099999999998 264.533 L 230.40099999999998 435.2 C 230.40099999999998 449.315 241.88599999999997 460.8 256.001 460.8 C 258.99199999999996 460.8 261.863 460.279 264.534 459.332 C 254.602 455.809 247.467 446.324 247.467 435.2 z" stroke-linecap="round" />
</g>
		<g transform="matrix(0.03 0 0 0.03 7.01 2.83)"  >
<path style="stroke: none; stroke-width: 1; stroke-dasharray: none; stroke-linecap: butt; stroke-dashoffset: 0; stroke-linejoin: miter; stroke-miterlimit: 4; fill: rgb(21,82,147); fill-rule: nonzero; opacity: 1;" vector-effect="non-scaling-stroke"  transform=" translate(-324.27, -349.87)" d="M 324.267 435.2 L 324.267 264.533 C 324.267 253.40900000000002 331.402 243.924 341.334 240.401 C 338.663 239.454 335.79200000000003 238.93300000000002 332.801 238.93300000000002 C 318.686 238.93300000000002 307.20099999999996 250.418 307.20099999999996 264.533 L 307.20099999999996 435.2 C 307.20099999999996 449.315 318.686 460.8 332.801 460.8 C 335.792 460.8 338.663 460.279 341.334 459.332 C 331.402 455.809 324.267 446.324 324.267 435.2 z" stroke-linecap="round" />
</g>
		<g transform="matrix(0.03 0 0 0.03 9.26 2.83)"  >
<path style="stroke: none; stroke-width: 1; stroke-dasharray: none; stroke-linecap: butt; stroke-dashoffset: 0; stroke-linejoin: miter; stroke-miterlimit: 4; fill: rgb(21,82,147); fill-rule: nonzero; opacity: 1;" vector-effect="non-scaling-stroke"  transform=" translate(-401.07, -349.87)" d="M 401.067 435.2 L 401.067 264.533 C 401.067 253.40900000000002 408.202 243.924 418.134 240.401 C 415.463 239.454 412.59200000000004 238.93300000000002 409.601 238.93300000000002 C 395.486 238.93300000000002 384.001 250.418 384.001 264.533 L 384.001 435.2 C 384.001 449.315 395.486 460.8 409.601 460.8 C 412.592 460.8 415.463 460.279 418.134 459.332 C 408.202 455.809 401.067 446.324 401.067 435.2 z" stroke-linecap="round" />
</g>
</g>
</g>
</svg>