<?xml version="1.0" standalone="no"?>
<!DOCTYPE svg PUBLIC "-//W3C//DTD SVG 20010904//EN" "http://www.w3.org/TR/2001/REC-SVG-20010904/DTD/svg10.dtd">
<svg version="1.0" xmlns="http://www.w3.org/2000/svg"
    width="4000.000000pt" height="2206.000000pt" viewBox="0 0 4000.000000 2206.000000"
    preserveAspectRatio="xMidYMid meet">

    <g transform="translate(0.000000,2206.000000) scale(0.100000,-0.100000)"
        fill="#000000" stroke="none">
        <path
            d="M7360 15134 c-2665 -2461 -4858 -4488 -4875 -4505 l-30 -29 4676 0
4676 0 4814 4446 c2648 2446 4842 4473 4877 4505 l63 59 -4678 0 -4678 0
-4845 -4476z" />
        <path
            d="M17174 14527 c-406 -375 -2594 -2396 -4861 -4490 -2268 -2094 -4123
-3810 -4123 -3812 0 -3 2100 -5 4668 -5 l4667 1 4845 4475 c2665 2461 4854
4484 4865 4495 19 19 -29 19 -4651 19 l-4671 0 -739 -683z" />
        <path
            d="M26420 5484 c-509 -80 -913 -379 -1149 -852 -237 -473 -186 -1076
128 -1528 283 -407 735 -654 1195 -654 345 0 606 68 856 223 360 224 612 585
701 1007 29 138 32 407 6 548 -61 330 -227 636 -473 873 -196 188 -430 311
-702 370 -131 28 -425 35 -562 13z m425 -737 c104 -29 186 -78 271 -163 68
-66 90 -97 128 -175 70 -144 90 -242 90 -429 0 -129 -4 -170 -23 -245 -44
-173 -137 -332 -243 -416 -108 -86 -271 -139 -428 -139 -138 0 -306 57 -407
139 -106 86 -197 236 -241 400 -22 84 -25 116 -25 256 0 140 3 172 26 257 79
296 277 491 542 532 55 8 259 -3 310 -17z" />
        <path
            d="M32840 5490 c-346 -47 -628 -186 -865 -424 -529 -532 -598 -1305
-173 -1942 94 -142 284 -334 417 -423 254 -168 465 -238 756 -248 307 -10 589
53 851 191 230 122 372 254 468 437 l35 65 -337 201 -337 201 -33 -64 c-62
-123 -192 -222 -357 -273 -67 -21 -101 -25 -210 -25 -117 0 -138 3 -210 28
-235 81 -387 263 -457 544 -33 131 -30 331 5 466 77 288 259 480 507 532 148
31 365 2 508 -68 87 -43 188 -142 226 -223 16 -33 30 -62 32 -64 2 -3 526 365
611 430 l22 16 -58 89 c-181 274 -502 474 -866 540 -105 18 -437 27 -535 14z" />
        <path
            d="M2715 5478 c-3 -7 -4 -686 -3 -1508 l3 -1495 413 -3 412 -2 0 590 0
590 505 0 505 0 0 -590 0 -590 415 0 415 0 0 1510 0 1510 -415 0 -415 0 0
-560 0 -560 -505 0 -505 0 0 560 0 560 -410 0 c-319 0 -412 -3 -415 -12z" />
        <path
            d="M5900 3980 l0 -1510 1070 0 1070 0 0 360 0 360 -657 2 -658 3 -3 238
-2 237 550 0 550 0 0 335 0 335 -550 0 -550 0 2 213 3 212 643 3 642 2 -2 358
-3 357 -1052 3 -1053 2 0 -1510z" />
        <path
            d="M9125 5478 c-23 -64 -955 -2990 -955 -2998 0 -7 145 -10 418 -10
l419 0 81 268 c44 147 84 279 87 295 l7 27 405 -2 405 -3 91 -292 90 -293 419
0 c230 0 418 2 418 4 0 1 -215 680 -479 1507 l-478 1504 -462 3 c-364 2 -463
0 -466 -10z m601 -1338 c72 -286 129 -522 126 -525 -3 -3 -126 -5 -274 -5
-226 0 -269 2 -266 14 22 96 274 1036 278 1036 3 0 64 -234 136 -520z" />
        <path
            d="M11265 5478 c-3 -7 -4 -686 -3 -1508 l3 -1495 1098 -3 1097 -2 0 360
0 360 -685 0 -685 0 0 1150 0 1150 -410 0 c-319 0 -412 -3 -415 -12z" />
        <path
            d="M13130 5130 l0 -360 433 -2 432 -3 3 -1147 2 -1148 410 0 410 0 2
1148 3 1147 433 3 432 2 0 360 0 360 -1280 0 -1280 0 0 -360z" />
        <path
            d="M15995 5478 c-3 -7 -4 -686 -3 -1508 l3 -1495 413 -3 412 -2 0 590 0
590 505 0 505 0 0 -590 0 -590 415 0 415 0 0 1510 0 1510 -415 0 -415 0 0
-560 0 -560 -505 0 -505 0 0 560 0 560 -410 0 c-319 0 -412 -3 -415 -12z" />
        <path
            d="M18900 5482 c0 -5 230 -460 510 -1011 l510 -1001 0 -500 0 -500 410
0 410 0 0 502 0 502 515 999 c283 549 515 1003 515 1008 0 6 -171 8 -446 7
l-445 -3 -269 -600 c-148 -330 -272 -606 -277 -614 -6 -9 -97 188 -278 603
l-269 616 -443 0 c-244 0 -443 -4 -443 -8z" />
        <path
            d="M22470 5130 l0 -360 433 -2 432 -3 3 -1147 2 -1148 410 0 410 0 2
1148 3 1147 433 3 432 2 0 360 0 360 -1280 0 -1280 0 0 -360z" />
        <path
            d="M28490 4683 c0 -450 5 -859 10 -923 62 -713 422 -1164 1028 -1287 69
-14 135 -18 322 -17 249 0 350 14 505 65 481 162 776 578 845 1194 6 53 10
436 10 933 l0 842 -409 0 -409 0 -5 -847 c-4 -724 -7 -860 -21 -927 -71 -352
-214 -512 -477 -533 -244 -19 -432 122 -518 387 -49 153 -51 197 -51 1088 l0
832 -415 0 -415 0 0 -807z" />
        <path
            d="M34620 3980 l0 -1510 415 0 415 0 0 590 0 590 505 0 505 0 0 -590 0
-590 413 2 412 3 0 1505 0 1505 -412 3 -413 2 0 -560 0 -560 -505 0 -505 0 0
560 0 560 -415 0 -415 0 0 -1510z" />
    </g>
</svg>